<?xml version="1.0" encoding="utf-8"?>
<!-- Generator: Adobe Illustrator 22.1.0, SVG Export Plug-In . SVG Version: 6.00 Build 0)  -->
<svg version="1.0" id="CR" xmlns="http://www.w3.org/2000/svg" xmlns:xlink="http://www.w3.org/1999/xlink" x="0px" y="0px"
	 viewBox="0 0 187.1 68" enable-background="new 0 0 187.1 68" xml:space="preserve">
<g>
	<g>
		<path fill="#FFFFFF" d="M89,32.6c0,4.3-0.4,6.4-1.8,8.8c-2.6,4.6-8.3,7.7-14.1,7.7c-9.4,0-17.2-7.7-17.2-17.1
			c0-9.5,7.8-17.2,17.3-17.2c3.8,0,7.5,1.2,10.4,3.6c1.3,1,2.3,2.1,4,4.2l-1.7,1.3c-1.4-1.8-2.1-2.7-3.2-3.5
			c-2.5-2.2-6.1-3.5-9.6-3.5c-8.2,0-15.1,7-15.1,15.2c0,8.2,6.8,15,15,15c4.8,0,9.9-2.7,12.2-6.4c1-1.6,1.4-3.2,1.5-6.1H75v-2H89z"
			/>
		<path fill="#FFFFFF" d="M97.9,37.6l-4.4,10.9h-2.4l14-34.3l13.9,34.3h-2.4L112,37.6H97.9z M105,19.8l-6.3,15.8h12.6L105,19.8z"/>
		<path fill="#FFFFFF" d="M150.6,22.1c-1.5-1.7-2.3-2.4-3.9-3.2c-2.3-1.3-4.9-2-7.3-2c-8.1,0-15,7-15,15.2c0,4.4,1.8,8.3,5.2,11.1
			c2.9,2.4,6.4,3.8,9.8,3.8c2.6,0,5.8-0.9,8.3-2.5c1-0.6,1.6-1.1,2.9-2.4v2.9c-3.7,2.9-7.1,4.1-11.1,4.1c-9.4,0-17.4-7.8-17.4-17.1
			c0-9.3,7.9-17.2,17.3-17.2c4.2,0,7.7,1.3,11.2,4.3V22.1z M139.4,12.9l-6.2-5.2l1.8-1.4l4.4,3.7l4.4-3.7l1.7,1.4L139.4,12.9z"/>
		<path fill="#FFFFFF" d="M174.2,48.5h-2.6l-10.7-15.7h-1v15.7h-2.1V15.3h4.7c3.4,0,5.3,0.4,7,1.7c2.1,1.5,3.3,4,3.3,7.1
			c0,3.4-1.5,6.2-4.2,7.6c-1.3,0.7-2.6,0.9-5.3,1.1L174.2,48.5z M163.1,30.8c4.8,0,7.5-2.5,7.5-6.8c0-2.6-1.1-4.8-2.9-5.8
			c-1.2-0.7-2.9-1-5-1h-2.7v13.6H163.1z"/>
	</g>
	<g>
		<path fill="#FFFFFF" d="M29.7,48.7c0.6,0,1.2-0.1,1.8-0.2h-3.6C28.4,48.6,29,48.7,29.7,48.7z"/>
		<path fill="#FFFFFF" d="M47.5,19.5v-4.2H42c0.1,0.9,0.2,1.7,0.2,2.6C44.1,18.1,45.9,18.6,47.5,19.5z"/>
		<path fill="#FFFFFF" d="M37.2,34c1.6,1.8,2.5,4.1,2.5,6.6c0,1.4-0.3,2.7-0.8,3.8c0.6,0.1,1.2,0.1,1.8,0.1c2.5,0,4.8-0.7,6.8-2
			V21.8c-1.6-1-3.3-1.7-5.3-1.9C42,25.2,40.2,30,37.2,34z"/>
		<path fill="#FFFFFF" d="M26.4,31.2c0.5-7.3,6.5-13.1,13.9-13.4c0-0.9-0.1-1.7-0.3-2.6H14.3v26.6c0.9,0.1,1.9,0.2,2.8,0.2
			c0.9,0,1.7-0.1,2.6-0.1c0-0.4-0.1-0.8-0.1-1.2C19.6,36.3,22.5,32.5,26.4,31.2z"/>
		<path fill="#FFFFFF" d="M29.2,40.9c-2.2,1.2-4.6,2.1-7.1,2.6c0.9,2.5,3.1,4.4,5.7,5h3.6c1.7-0.4,3.3-1.4,4.4-2.7
			C33.2,44.8,30.9,43.1,29.2,40.9z"/>
		<path fill="#FFFFFF" d="M31,39.8c1.5,1.9,3.6,3.4,6,4.2c0.5-1,0.8-2.2,0.8-3.4c0-1.9-0.7-3.7-1.8-5.1C34.4,37.2,32.8,38.6,31,39.8
			z"/>
		<path fill="#FFFFFF" d="M35.7,32.6c2.7-3.6,4.3-8,4.5-12.8c-6.1,0.2-11.1,4.9-11.8,10.9c0.4-0.1,0.8-0.1,1.2-0.1
			C31.9,30.6,34,31.4,35.7,32.6z"/>
		<path fill="#FFFFFF" d="M20.1,43.8c-1,0.1-2,0.2-3,0.2c-1,0-1.9-0.1-2.8-0.2v4.6h9.1C21.9,47.3,20.8,45.7,20.1,43.8z"/>
		<path fill="#FFFFFF" d="M21.6,40.7c0,0.3,0,0.6,0.1,0.9c2.3-0.5,4.5-1.3,6.5-2.3c-1-1.8-1.6-3.8-1.8-5.9
			C23.6,34.6,21.6,37.4,21.6,40.7z"/>
		<path fill="#FFFFFF" d="M28.3,32.7c0.1,2,0.6,3.8,1.5,5.5c1.7-1.1,3.2-2.5,4.6-4c-1.3-1-3-1.6-4.8-1.6
			C29.2,32.6,28.8,32.7,28.3,32.7z"/>
		<path fill="#FFFFFF" d="M37.9,46.4c-0.6,0.8-1.2,1.5-2,2.1h11.6V45c-2,1.1-4.3,1.7-6.8,1.7C39.8,46.6,38.8,46.5,37.9,46.4z"/>
	</g>
	<path fill="#FFFFFF" d="M18.5,58.9V59c0,0.5-0.1,0.8-0.2,1.1c-0.3,0.6-1.1,1-1.8,1c-1.2,0-2.2-1-2.2-2.2c0-1.2,1-2.2,2.2-2.2
		c0.5,0,0.9,0.2,1.3,0.4c0.2,0.1,0.3,0.2,0.5,0.5L18,58c-0.4-0.6-0.9-0.8-1.4-0.8c-1,0-1.8,0.8-1.8,1.8c0,1,0.8,1.8,1.7,1.8
		c0.5,0,1.1-0.3,1.3-0.7c0.1-0.2,0.2-0.3,0.2-0.6h-1.3v-0.4H18.5z"/>
	<path fill="#FFFFFF" d="M23.4,61.1h-0.6l-1.3-1.9h-0.1v1.9h-0.5v-4.3h0.7c0.5,0,0.8,0.1,1,0.2c0.3,0.2,0.5,0.6,0.5,1
		c0,0.7-0.4,1.1-1.1,1.2L23.4,61.1z M21.7,58.8c0.6,0,0.9-0.3,0.9-0.8c0-0.3-0.1-0.5-0.3-0.6c-0.2-0.1-0.3-0.1-0.6-0.1h-0.3v1.5
		H21.7z"/>
	<path fill="#FFFFFF" d="M26.1,59.9l-0.5,1.2h-0.5l2-4.5l1.9,4.5h-0.5L28,59.9H26.1z M27.1,57.7l-0.7,1.7h1.4L27.1,57.7z"/>
	<polygon fill="#FFFFFF" points="31.1,56.6 34.4,60.1 34.4,56.8 34.9,56.8 34.9,61.3 31.6,57.8 31.6,61.1 31.1,61.1 	"/>
	<polygon fill="#FFFFFF" points="38.6,61.1 38.1,61.1 38.1,57.2 37.1,57.2 37.1,56.8 39.6,56.8 39.6,57.2 38.6,57.2 	"/>
	<path fill="#FFFFFF" d="M45.7,58.9c0,1.2-1,2.2-2.3,2.2c-0.6,0-1.2-0.3-1.7-0.8c-0.4-0.4-0.6-0.9-0.6-1.5c0-1.2,1-2.2,2.2-2.2
		C44.7,56.7,45.7,57.7,45.7,58.9 M41.8,58.9c0,0.5,0.2,1,0.5,1.3c0.3,0.3,0.8,0.5,1.2,0.5c1,0,1.8-0.8,1.8-1.8c0-1-0.8-1.8-1.8-1.8
		C42.5,57.2,41.8,58,41.8,58.9"/>
	<polygon fill="#FFFFFF" points="49.2,60.1 50.4,56.8 50.9,56.8 49.2,61.3 47.5,56.8 48,56.8 	"/>
	<path fill="#FFFFFF" d="M53.3,59.9l-0.5,1.2h-0.5l2-4.5l1.9,4.5h-0.5l-0.5-1.2H53.3z M54.2,57.7l-0.7,1.7h1.5L54.2,57.7z
		 M54.1,56.5l-0.3-0.2l0.8-0.8l0.4,0.3L54.1,56.5z"/>
	<path fill="#FFFFFF" d="M61.8,59.9l-0.5,1.2h-0.5l2-4.5l1.9,4.5h-0.5l-0.5-1.2H61.8z M62.8,57.7L62,59.4h1.5L62.8,57.7z"/>
	<path fill="#FFFFFF" d="M70.6,58.9V59c0,0.5-0.1,0.8-0.2,1.1c-0.3,0.6-1.1,1-1.8,1c-1.2,0-2.2-1-2.2-2.2c0-1.2,1-2.2,2.2-2.2
		c0.5,0,0.9,0.2,1.3,0.4c0.2,0.1,0.3,0.2,0.5,0.5L70.1,58c-0.4-0.6-0.9-0.8-1.4-0.8c-1,0-1.8,0.8-1.8,1.8c0,1,0.8,1.8,1.7,1.8
		c0.5,0,1.1-0.3,1.3-0.7c0.1-0.2,0.2-0.3,0.2-0.6h-1.3v-0.4H70.6z"/>
	<polygon fill="#FFFFFF" points="73.5,57.2 73.5,58.5 75.2,58.5 75.2,59 73.5,59 73.5,60.6 75.2,60.6 75.2,61.1 73,61.1 73,56.8 
		75.2,56.8 75.2,57.2 	"/>
	<polygon fill="#FFFFFF" points="77.6,56.6 80.9,60.1 80.9,56.8 81.4,56.8 81.4,61.3 78.1,57.8 78.1,61.1 77.6,61.1 	"/>
	<polygon fill="#FFFFFF" points="85.1,61.1 84.6,61.1 84.6,57.2 83.5,57.2 83.5,56.8 86.1,56.8 86.1,57.2 85.1,57.2 	"/>
	<path fill="#FFFFFF" d="M88.7,59.4c0,0.4,0,0.6,0.1,0.8c0.2,0.3,0.5,0.5,0.9,0.5c0.4,0,0.7-0.2,0.9-0.5c0.1-0.2,0.1-0.4,0.1-0.8
		v-2.6h0.5v2.8c0,0.5-0.1,0.8-0.3,1c-0.3,0.4-0.8,0.6-1.2,0.6c-0.5,0-1-0.2-1.2-0.6c-0.2-0.3-0.3-0.5-0.3-1v-2.8h0.5V59.4z"/>
	<path fill="#FFFFFF" d="M96.4,61.1h-0.6l-1.3-1.9h-0.1v1.9h-0.5v-4.3h0.7c0.5,0,0.8,0.1,1,0.2c0.3,0.2,0.5,0.6,0.5,1
		c0,0.7-0.4,1.1-1.1,1.2L96.4,61.1z M94.7,58.8c0.6,0,0.9-0.3,0.9-0.8c0-0.3-0.1-0.5-0.3-0.6c-0.2-0.1-0.3-0.1-0.6-0.1h-0.3v1.5
		H94.7z"/>
	<path fill="#FFFFFF" d="M99.2,59.9l-0.5,1.2h-0.5l2-4.5l1.9,4.5h-0.5l-0.5-1.2H99.2z M100.1,57.7l-0.7,1.7h1.4L100.1,57.7z"/>
	<path fill="#FFFFFF" d="M110.5,57.7c-0.4-0.4-0.8-0.6-1.3-0.6c-0.9,0-1.7,0.8-1.7,1.8c0,1,0.8,1.8,1.7,1.8c0.5,0,0.9-0.2,1.3-0.6
		v0.6c-0.4,0.3-0.8,0.4-1.3,0.4c-1.2,0-2.2-1-2.2-2.2c0-1.2,1-2.2,2.2-2.2c0.5,0,0.8,0.1,1.3,0.4V57.7z M109.2,56.4l-0.9-0.8
		l0.3-0.3l0.6,0.5l0.6-0.5l0.3,0.3L109.2,56.4z"/>
	<polygon fill="#FFFFFF" points="113.3,57.2 113.3,58.5 115,58.5 115,59 113.3,59 113.3,60.6 115.1,60.6 115.1,61.1 112.9,61.1 
		112.9,56.8 115.1,56.8 115.1,57.2 	"/>
	<path fill="#FFFFFF" d="M119.4,57.6c-0.2-0.3-0.4-0.5-0.7-0.5c-0.4,0-0.7,0.3-0.7,0.7c0,0.2,0.1,0.3,0.3,0.5
		c0.2,0.1,0.2,0.1,0.7,0.4c0.7,0.3,1,0.6,1,1.2c0,0.7-0.6,1.3-1.4,1.3c-0.7,0-1.2-0.4-1.3-1.1l0.5-0.1c0.1,0.2,0.1,0.3,0.2,0.4
		c0.2,0.2,0.4,0.3,0.7,0.3c0.5,0,0.9-0.4,0.9-0.8c0-0.3-0.1-0.5-0.4-0.6c-0.2-0.1-0.2-0.1-0.8-0.4c-0.6-0.3-0.9-0.6-0.9-1.1
		c0-0.6,0.5-1.1,1.2-1.1c0.5,0,0.8,0.2,1.1,0.7L119.4,57.6z"/>
	<polygon fill="#FFFFFF" points="124.6,56.8 125.2,56.8 123.2,58.8 125.3,61.1 124.6,61.1 122.9,59.1 122.7,59.2 122.7,61.1 
		122.3,61.1 122.3,56.8 122.7,56.8 122.7,58.6 	"/>
	<path fill="#FFFFFF" d="M127.9,57.2v1.3h1.7V59h-1.7v1.7h1.7v0.4h-2.2v-4.3h2.2v0.4H127.9z M128.4,56.5l-0.3-0.2l0.8-0.8l0.4,0.3
		L128.4,56.5z"/>
	<path fill="#FFFFFF" d="M137.6,61.1H137l-1.3-1.9h-0.1v1.9h-0.5v-4.3h0.7c0.5,0,0.8,0.1,1,0.2c0.3,0.2,0.5,0.6,0.5,1
		c0,0.7-0.4,1.1-1.1,1.2L137.6,61.1z M135.9,58.8c0.6,0,0.9-0.3,0.9-0.8c0-0.3-0.1-0.5-0.3-0.6c-0.2-0.1-0.3-0.1-0.7-0.1h-0.3v1.5
		H135.9z"/>
	<polygon fill="#FFFFFF" points="140.3,57.2 140.3,58.5 142,58.5 142,59 140.3,59 140.3,60.6 142,60.6 142,61.1 139.8,61.1 
		139.8,56.8 142,56.8 142,57.2 	"/>
	<path fill="#FFFFFF" d="M144.9,61.1h-0.5v-4.3h0.8c0.5,0,0.8,0.1,1.1,0.3c0.2,0.2,0.4,0.5,0.4,0.9c0,0.3-0.1,0.7-0.4,0.9
		c-0.2,0.2-0.6,0.3-1,0.3h-0.4V61.1z M145.3,58.8c0.6,0,0.9-0.3,0.9-0.8c0-0.2-0.1-0.4-0.2-0.6c-0.2-0.1-0.4-0.2-0.7-0.2h-0.4v1.5
		H145.3z"/>
	<path fill="#FFFFFF" d="M149.3,59.4c0,0.4,0,0.6,0.1,0.8c0.2,0.3,0.5,0.5,0.9,0.5c0.4,0,0.7-0.2,0.9-0.5c0.1-0.2,0.1-0.4,0.1-0.8
		v-2.6h0.5v2.8c0,0.5-0.1,0.8-0.3,1c-0.3,0.4-0.8,0.6-1.2,0.6c-0.5,0-1-0.2-1.2-0.6c-0.2-0.3-0.3-0.5-0.3-1v-2.8h0.5V59.4z"/>
	<path fill="#FFFFFF" d="M154.5,56.8h0.8c0.4,0,0.7,0.1,1,0.3c0.3,0.2,0.4,0.5,0.4,0.9c0,0.4-0.1,0.6-0.4,0.8
		c0.5,0.1,0.8,0.6,0.8,1.1c0,0.4-0.2,0.7-0.4,0.9c-0.3,0.2-0.5,0.3-1,0.3h-1.1V56.8z M155.4,58.7c0.3,0,0.5,0,0.6-0.2
		c0.1-0.1,0.2-0.3,0.2-0.6c0-0.2-0.1-0.4-0.2-0.6c-0.1-0.1-0.3-0.2-0.6-0.2H155v1.4H155.4z M155.5,60.6c0.4,0,0.6,0,0.8-0.2
		c0.2-0.1,0.3-0.4,0.3-0.6c0-0.3-0.1-0.5-0.4-0.6c-0.2-0.1-0.4-0.1-0.7-0.1H155v1.6H155.5z"/>
	<polygon fill="#FFFFFF" points="159.9,60.6 161.1,60.6 161.1,61.1 159.4,61.1 159.4,56.8 159.9,56.8 	"/>
	<rect x="163.2" y="56.8" fill="#FFFFFF" width="0.5" height="4.3"/>
	<polygon fill="#FFFFFF" points="168.6,56.8 169.2,56.8 167.2,58.8 169.3,61.1 168.6,61.1 166.9,59.1 166.8,59.2 166.8,61.1 
		166.3,61.1 166.3,56.8 166.8,56.8 166.8,58.6 	"/>
	<polygon fill="#FFFFFF" points="170.9,56.8 171.5,56.8 172.6,58.7 173.7,56.8 174.2,56.8 172.8,59.2 172.8,61.1 172.3,61.1 
		172.3,59.2 	"/>
</g>
</svg>
