<?xml version="1.0" encoding="utf-8"?>
<!-- Generator: Adobe Illustrator 22.1.0, SVG Export Plug-In . SVG Version: 6.00 Build 0)  -->
<svg version="1.0" id="CR" xmlns="http://www.w3.org/2000/svg" xmlns:xlink="http://www.w3.org/1999/xlink" x="0px" y="0px"
	 viewBox="0 0 187.1 64.6" style="enable-background:new 0 0 187.1 64.6;" xml:space="preserve">
<style type="text/css">
	.st0{fill:#FFFFFF;}
</style>
<g>
	<g>
		<g>
			<path class="st0" d="M87.4,31.1c0,5-0.5,7.5-2.1,10.3c-3,5.4-9.7,9-16.4,9c-11,0-20-9-20-19.9c0-11.1,9.1-20,20.2-20
				c4.4,0,8.7,1.4,12.1,4.2c1.5,1.2,2.7,2.4,4.7,4.9l-2,1.5c-1.6-2.1-2.4-3.1-3.7-4.1c-2.9-2.6-7.1-4.1-11.2-4.1
				c-9.6,0-17.6,8.2-17.6,17.7S59.2,48,68.7,48c5.6,0,11.5-3.1,14.2-7.5c1.2-1.9,1.6-3.7,1.7-7.1H71.1v-2.3H87.4z"/>
			<path class="st0" d="M97.8,36.9l-5.1,12.7h-2.8l16.3-40l16.2,40h-2.8l-5.4-12.7H97.8z M106,16.2l-7.3,18.4h14.7L106,16.2z"/>
			<path class="st0" d="M159.2,18.8c-1.7-2-2.7-2.8-4.5-3.7c-2.7-1.5-5.7-2.3-8.5-2.3c-9.4,0-17.5,8.2-17.5,17.7
				c0,5.1,2.1,9.7,6.1,12.9c3.4,2.8,7.5,4.4,11.4,4.4c3,0,6.8-1,9.7-2.9c1.2-0.7,1.9-1.3,3.4-2.8v3.4c-4.3,3.4-8.3,4.8-12.9,4.8
				c-11,0-20.3-9.1-20.3-19.9s9.2-20,20.2-20c4.9,0,9,1.5,13.1,5L159.2,18.8L159.2,18.8z M146.1,8.1l-7.2-6.1l2.1-1.6l5.1,4.3
				l5.1-4.3l2,1.6L146.1,8.1z"/>
			<path class="st0" d="M186.7,49.6h-3l-12.5-18.3H170v18.3h-2.4V10.9h5.5c4,0,6.2,0.5,8.2,2c2.4,1.7,3.8,4.7,3.8,8.3
				c0,4-1.7,7.2-4.9,8.9c-1.5,0.8-3,1-6.2,1.3L186.7,49.6z M173.7,29c5.6,0,8.7-2.9,8.7-7.9c0-3-1.3-5.6-3.4-6.8
				c-1.4-0.8-3.4-1.2-5.8-1.2h-3.1V29C170.1,29,173.7,29,173.7,29z"/>
		</g>
		<g>
			<path class="st0" d="M18.3,49.8c0.7,0,1.4-0.1,2.1-0.2h-4.2C16.8,49.7,17.5,49.8,18.3,49.8z"/>
			<path class="st0" d="M39,15.8v-4.9h-6.4c0.1,1,0.2,2,0.2,3C35.1,14.2,37.2,14.8,39,15.8z"/>
			<path class="st0" d="M27,32.7c1.9,2.1,2.9,4.8,2.9,7.7c0,1.6-0.3,3.1-0.9,4.4c0.7,0.1,1.4,0.1,2.1,0.1c2.9,0,5.6-0.8,7.9-2.3
				V18.5c-1.9-1.2-3.8-2-6.2-2.2C32.6,22.5,30.5,28.1,27,32.7z"/>
			<path class="st0" d="M14.4,29.5C15,20.9,22,14.2,30.6,13.8c0-1-0.1-2-0.3-3H0.3v31c1,0.1,2.2,0.2,3.3,0.2s2-0.1,3-0.1
				c0-0.5-0.1-0.9-0.1-1.4C6.5,35.4,9.9,31,14.4,29.5z"/>
			<path class="st0" d="M17.7,40.8c-2.6,1.4-5.4,2.4-8.3,3c1,2.9,3.6,5.1,6.6,5.8h4.2c2-0.5,3.8-1.6,5.1-3.1
				C22.4,45.3,19.7,43.3,17.7,40.8z"/>
			<path class="st0" d="M19.8,39.5c1.7,2.2,4.2,4,7,4.9c0.6-1.2,0.9-2.6,0.9-4c0-2.2-0.8-4.3-2.1-5.9C23.8,36.4,21.9,38.1,19.8,39.5
				z"/>
			<path class="st0" d="M25.3,31.1c3.1-4.2,5-9.3,5.2-14.9c-7.1,0.2-12.9,5.7-13.8,12.7c0.5-0.1,0.9-0.1,1.4-0.1
				C20.8,28.8,23.3,29.7,25.3,31.1z"/>
			<path class="st0" d="M7.1,44.1c-1.2,0.1-2.3,0.2-3.5,0.2s-2.2-0.1-3.3-0.2v5.4h10.6C9.2,48.2,7.9,46.3,7.1,44.1z"/>
			<path class="st0" d="M8.8,40.5c0,0.3,0,0.7,0.1,1c2.7-0.6,5.2-1.5,7.6-2.7c-1.2-2.1-1.9-4.4-2.1-6.9C11.2,33.4,8.8,36.7,8.8,40.5
				z"/>
			<path class="st0" d="M16.6,31.2c0.1,2.3,0.7,4.4,1.7,6.4c2-1.3,3.7-2.9,5.4-4.7c-1.5-1.2-3.5-1.9-5.6-1.9
				C17.7,31.1,17.2,31.2,16.6,31.2z"/>
			<path class="st0" d="M27.8,47.2c-0.7,0.9-1.4,1.7-2.3,2.4H39v-4.1c-2.3,1.3-5,2-7.9,2C30.1,47.4,28.9,47.3,27.8,47.2z"/>
		</g>
	</g>
	<g>
		<path class="st0" d="M5.3,61.8v0.1c0,0.6-0.1,0.9-0.3,1.3c-0.4,0.7-1.2,1.2-2.1,1.2c-1.4,0-2.6-1.2-2.6-2.6c0-1.4,1.2-2.6,2.6-2.6
			c0.6,0,1.1,0.2,1.5,0.5c0.2,0.1,0.3,0.3,0.6,0.6l-0.4,0.4c-0.5-0.7-1-0.9-1.7-0.9c-1.1,0-2.1,0.9-2.1,2.1c0,1.1,0.9,2,2,2
			c0.6,0,1.3-0.3,1.6-0.9c0.1-0.2,0.2-0.4,0.2-0.7H3.2v-0.5H5.3z"/>
		<path class="st0" d="M10.9,64.3h-0.7l-1.5-2.2H8.6v2.2H8v-5h0.8c0.6,0,0.9,0.1,1.2,0.3c0.3,0.2,0.6,0.7,0.6,1.1
			c0,0.8-0.5,1.3-1.3,1.4L10.9,64.3z M8.9,61.6c0.7,0,1.1-0.3,1.1-0.9c0-0.3-0.1-0.6-0.4-0.7c-0.2-0.1-0.4-0.2-0.8-0.2H8.6v1.8H8.9z
			"/>
		<path class="st0" d="M14.1,62.9l-0.6,1.4h-0.6l2.3-5.2l2.3,5.2h-0.6l-0.6-1.4H14.1z M15.2,60.3l-0.9,2h1.7L15.2,60.3z"/>
		<polygon class="st0" points="19.9,59.1 23.8,63.1 23.8,59.3 24.4,59.3 24.4,64.5 20.5,60.4 20.5,64.3 19.9,64.3 		"/>
		<polygon class="st0" points="28.6,64.3 28.1,64.3 28.1,59.8 26.9,59.8 26.9,59.3 29.8,59.3 29.8,59.8 28.6,59.8 		"/>
		<path class="st0" d="M37,61.8c0,1.4-1.2,2.6-2.6,2.6c-0.7,0-1.4-0.3-1.9-0.9c-0.4-0.5-0.6-1.1-0.6-1.7c0-1.4,1.2-2.6,2.6-2.6
			C35.8,59.2,37,60.4,37,61.8 M32.3,61.7c0,0.6,0.2,1.1,0.6,1.5c0.4,0.4,0.9,0.6,1.4,0.6c1.1,0,2.1-0.9,2.1-2.1c0-1.1-0.9-2.1-2-2.1
			C33.2,59.7,32.3,60.6,32.3,61.7"/>
		<polygon class="st0" points="41,63.1 42.4,59.3 43,59.3 41,64.6 39,59.3 39.6,59.3 		"/>
		<path class="st0" d="M45.7,62.9l-0.6,1.4h-0.6l2.3-5.2l2.3,5.2h-0.6l-0.6-1.4H45.7z M46.8,60.3l-0.9,2h1.7L46.8,60.3z M46.7,58.9
			l-0.3-0.2l0.9-1l0.5,0.3L46.7,58.9z"/>
		<path class="st0" d="M55.7,62.9l-0.6,1.4h-0.6l2.3-5.2l2.3,5.2h-0.6l-0.6-1.4H55.7z M56.8,60.3l-0.9,2h1.7L56.8,60.3z"/>
		<path class="st0" d="M66,61.8v0.1c0,0.6-0.1,0.9-0.3,1.3c-0.4,0.7-1.2,1.2-2.1,1.2c-1.4,0-2.6-1.2-2.6-2.6c0-1.4,1.2-2.6,2.6-2.6
			c0.6,0,1.1,0.2,1.5,0.5c0.2,0.1,0.3,0.3,0.6,0.6l-0.4,0.4c-0.5-0.7-1-0.9-1.7-0.9c-1.1,0-2.1,0.9-2.1,2.1c0,1.1,0.9,2,2,2
			c0.6,0,1.3-0.3,1.6-0.9c0.1-0.2,0.2-0.4,0.2-0.7h-1.5v-0.5H66z"/>
		<polygon class="st0" points="69.3,59.8 69.3,61.3 71.3,61.3 71.3,61.8 69.3,61.8 69.3,63.8 71.3,63.8 71.3,64.3 68.7,64.3 
			68.7,59.3 71.3,59.3 71.3,59.8 		"/>
		<polygon class="st0" points="74.1,59.1 78,63.1 78,59.3 78.5,59.3 78.5,64.5 74.6,60.4 74.6,64.3 74.1,64.3 		"/>
		<polygon class="st0" points="82.8,64.3 82.2,64.3 82.2,59.8 81,59.8 81,59.3 84,59.3 84,59.8 82.8,59.8 		"/>
		<path class="st0" d="M87.1,62.3c0,0.5,0,0.7,0.2,1c0.2,0.3,0.6,0.5,1.1,0.5c0.4,0,0.9-0.2,1.1-0.5c0.1-0.2,0.2-0.4,0.2-1v-3.1h0.6
			v3.2c0,0.5-0.1,0.9-0.3,1.2c-0.3,0.4-0.9,0.7-1.4,0.7c-0.6,0-1.1-0.3-1.5-0.7c-0.2-0.3-0.3-0.6-0.3-1.2v-3.2h0.6V62.3z"/>
		<path class="st0" d="M96,64.3h-0.7l-1.5-2.2h-0.1v2.2h-0.6v-5h0.8c0.6,0,0.9,0.1,1.2,0.3c0.3,0.2,0.6,0.7,0.6,1.1
			c0,0.8-0.5,1.3-1.3,1.4L96,64.3z M94,61.6c0.7,0,1.1-0.3,1.1-0.9c0-0.3-0.1-0.6-0.4-0.7c-0.2-0.1-0.4-0.2-0.8-0.2h-0.3v1.8H94z"/>
		<path class="st0" d="M99.2,62.9l-0.6,1.4H98l2.3-5.2l2.3,5.2h-0.6l-0.6-1.4H99.2z M100.3,60.3l-0.9,2h1.7L100.3,60.3z"/>
		<path class="st0" d="M112.4,60.4c-0.5-0.5-1-0.7-1.5-0.7c-1.1,0-2,0.9-2,2.1c0,1.1,0.9,2,2,2c0.6,0,1-0.2,1.5-0.7v0.7
			c-0.5,0.3-1,0.5-1.5,0.5c-1.4,0-2.6-1.2-2.6-2.6c0-1.4,1.2-2.6,2.6-2.6c0.6,0,1,0.1,1.5,0.5V60.4z M110.9,58.9l-1.1-0.9l0.4-0.3
			l0.7,0.6l0.7-0.6l0.4,0.3L110.9,58.9z"/>
		<polygon class="st0" points="115.7,59.8 115.7,61.3 117.7,61.3 117.7,61.8 115.7,61.8 115.7,63.8 117.7,63.8 117.7,64.3 
			115.2,64.3 115.2,59.3 117.7,59.3 117.7,59.8 		"/>
		<path class="st0" d="M122.7,60.3c-0.3-0.4-0.5-0.5-0.9-0.5c-0.5,0-0.8,0.3-0.8,0.8c0,0.2,0.1,0.4,0.3,0.5c0.2,0.1,0.2,0.1,0.9,0.4
			c0.8,0.4,1.1,0.7,1.1,1.4c0,0.9-0.7,1.5-1.6,1.5c-0.8,0-1.3-0.5-1.5-1.3l0.5-0.2c0.1,0.3,0.1,0.4,0.2,0.5c0.2,0.3,0.5,0.4,0.8,0.4
			c0.6,0,1-0.4,1-1c0-0.3-0.1-0.5-0.4-0.7c-0.2-0.1-0.2-0.1-0.9-0.4c-0.7-0.3-1-0.7-1-1.2c0-0.7,0.6-1.3,1.4-1.3
			c0.6,0,1,0.3,1.3,0.8L122.7,60.3z"/>
		<polygon class="st0" points="128.8,59.3 129.6,59.3 127.2,61.6 129.6,64.3 128.9,64.3 126.8,62 126.7,62.1 126.7,64.3 126.1,64.3 
			126.1,59.3 126.7,59.3 126.7,61.4 		"/>
		<path class="st0" d="M132.7,59.8v1.5h2v0.5h-2v2h2v0.5h-2.6v-5h2.6v0.5H132.7z M133.3,58.9l-0.3-0.2l0.9-1l0.5,0.3L133.3,58.9z"/>
		<path class="st0" d="M144,64.3h-0.7l-1.5-2.2h-0.1v2.2h-0.6v-5h0.8c0.6,0,0.9,0.1,1.2,0.3c0.3,0.2,0.6,0.7,0.6,1.1
			c0,0.8-0.5,1.3-1.3,1.4L144,64.3z M142,61.6c0.7,0,1.1-0.3,1.1-0.9c0-0.3-0.1-0.6-0.4-0.7c-0.2-0.1-0.4-0.2-0.8-0.2h-0.3v1.8H142z
			"/>
		<polygon class="st0" points="147.1,59.8 147.1,61.3 149.1,61.3 149.1,61.8 147.1,61.8 147.1,63.8 149.2,63.8 149.2,64.3 
			146.6,64.3 146.6,59.3 149.2,59.3 149.2,59.8 		"/>
		<path class="st0" d="M152.5,64.3h-0.6v-5h0.9c0.6,0,1,0.1,1.3,0.4c0.3,0.2,0.5,0.6,0.5,1.1c0,0.4-0.2,0.8-0.4,1
			c-0.3,0.2-0.7,0.4-1.2,0.4h-0.5V64.3z M152.9,61.6c0.7,0,1.1-0.3,1.1-0.9c0-0.3-0.1-0.5-0.3-0.7c-0.2-0.2-0.4-0.2-0.8-0.2h-0.4
			v1.8H152.9z"/>
		<path class="st0" d="M157.6,62.3c0,0.5,0,0.7,0.2,1c0.2,0.3,0.6,0.5,1.1,0.5c0.4,0,0.9-0.2,1-0.5c0.1-0.2,0.2-0.4,0.2-1v-3.1h0.6
			v3.2c0,0.5-0.1,0.9-0.3,1.2c-0.3,0.4-0.9,0.7-1.4,0.7c-0.6,0-1.1-0.3-1.5-0.7c-0.2-0.3-0.3-0.6-0.3-1.2v-3.2h0.6V62.3z"/>
		<path class="st0" d="M163.7,59.3h0.9c0.5,0,0.9,0.1,1.1,0.3c0.3,0.2,0.5,0.6,0.5,1c0,0.4-0.2,0.7-0.5,1c0.6,0.2,0.9,0.6,0.9,1.3
			c0,0.4-0.2,0.8-0.5,1.1c-0.3,0.2-0.6,0.3-1.2,0.3h-1.2V59.3z M164.7,61.5c0.4,0,0.5,0,0.7-0.2c0.2-0.2,0.3-0.4,0.3-0.6
			c0-0.3-0.1-0.5-0.3-0.7c-0.2-0.1-0.4-0.2-0.7-0.2h-0.4v1.7H164.7z M164.9,63.8c0.5,0,0.7-0.1,0.9-0.2c0.2-0.2,0.3-0.4,0.3-0.7
			c0-0.3-0.2-0.6-0.4-0.7c-0.2-0.1-0.5-0.2-0.9-0.2h-0.6v1.8H164.9z"/>
		<polygon class="st0" points="170,63.8 171.3,63.8 171.3,64.3 169.4,64.3 169.4,59.3 170,59.3 		"/>
		<rect x="173.8" y="59.3" class="st0" width="0.6" height="5"/>
		<polygon class="st0" points="180.1,59.3 180.8,59.3 178.5,61.6 180.9,64.3 180.2,64.3 178.1,62 178,62.1 178,64.3 177.4,64.3 
			177.4,59.3 178,59.3 178,61.4 		"/>
		<polygon class="st0" points="182.8,59.3 183.4,59.3 184.7,61.5 186,59.3 186.7,59.3 185,62.1 185,64.3 184.4,64.3 184.4,62.1 		
			"/>
	</g>
</g>
</svg>
